<?xml version="1.0" encoding="UTF-8" standalone="no"?>
<svg
   width="512"
   height="512"
   viewBox="-1.93 3.26 70 67"
   version="1.1"
   xmlns="http://www.w3.org/2000/svg">
  <g transform="translate(19.068878,-121.74288)">
    <path fill="#7c3aed" d="M 9.8694746,189.43967 C 8.8016437,188.96495 7.3555978,187.35096 7.0031291,186.24043 6.91555,185.9645 6.524408,185.6744 6.1339247,185.59576 c -2.5177127,-0.50698 -7.02600193,-2.25148 -9.2914809,-3.59536 -2.2402275,-1.32891 -6.8911228,-5.02512 -6.8999128,-5.48358 -0.0018,-0.0946 -0.462623,-0.6665 -1.02402,-1.27084 -0.933159,-1.00456 -1.135484,-1.09971 -2.358501,-1.10918 -4.893882,-0.0379 -7.396621,-5.67514 -4.201637,-9.46386 l 0.694816,-0.82394 -0.416092,-1.95419 c -0.565934,-2.65792 -0.35666,-8.47622 0.417644,-11.61148 2.036167,-8.2447 6.680606,-14.45049 14.2232162,-19.00473 4.1307663,-2.49416 9.0762522,-3.74943 14.7718748,-3.74943 2.124559,0 4.295275,0.15951 5.461514,0.40133 9.910278,2.05491 17.984663,8.82306 21.76841,18.2468 0.831521,2.07098 0.882906,2.13314 2.15116,2.60232 2.591259,0.95863 3.933268,2.96169 3.76411,5.61826 -0.122984,1.93142 -1.031415,3.54145 -2.480666,4.39653 l -0.910195,0.53703 v 9.8448 9.84481 l 1.143217,0.80582 c 3.392422,2.3912 2.98401,7.78582 -0.720017,9.51054 -2.842659,1.32364 -5.571883,0.5325 -7.382351,-2.13997 -1.475765,-2.17841 -0.64369,-5.81142 1.703554,-7.43806 l 1.022263,-0.70843 v -9.86806 c 0,-9.4072 -0.02311,-9.8754 -0.494797,-10.02511 -0.272138,-0.0864 -0.960625,-0.62752 -1.529971,-1.20256 l -1.035174,-1.04552 -2.9018,0.36694 c -1.59599,0.20182 -4.8068,0.62051 -7.135133,0.93042 -2.328334,0.30991 -4.731431,0.62449 -5.340216,0.69907 -1.012512,0.12404 -1.174759,0.25587 -1.903002,1.54624 -0.452819,0.80236 -1.19871,1.65946 -1.729738,1.98766 l -0.93362,0.57701 -0.0738,7.8545 -0.0738,7.8545 1.358311,1.25172 c 2.909055,2.68076 2.959196,6.29105 0.12111,8.72034 -1.629175,1.39451 -3.92568,1.67695 -6.0297354,0.74157 z m -1.012136,-9.29971 1.4132924,-1.3642 0.02509,-7.56548 c 0.0138,-4.16102 -0.06467,-7.68455 -0.174379,-7.83007 -0.3294464,-0.437 -1.8751441,-1.45521 -2.2090861,-1.45521 -0.1711911,0 -2.9442155,1.12094 -6.1622764,2.49097 -3.218061,1.37004 -6.6793933,2.82983 -7.6918497,3.24398 -1.7383975,0.71112 -1.852793,0.8106 -2.0558244,1.78779 -0.1182471,0.56913 -0.3419207,1.18772 -0.4970525,1.37464 -0.3307755,0.39856 -0.2231147,0.61148 1.1496733,2.2737 1.4333272,1.73553 4.7626744,4.45793 6.86506571,5.61355 1.76436979,0.96982 6.53892149,2.75322 7.44318059,2.78019 0.2644836,0.008 1.1168606,-0.59954 1.8941711,-1.34986 z M -6.7912266,163.50003 c 1.0430372,-0.44342 2.4322124,-1.03364 3.0870562,-1.3116 0.6548438,-0.27796 3.09562514,-1.29972 5.4239586,-2.27059 2.3283334,-0.97087 4.363102,-1.8987 4.5217079,-2.06184 0.1586059,-0.16314 0.5006555,-0.87469 0.7601103,-1.58121 0.9061823,-2.46763 3.0326426,-4.12119 5.3157116,-4.13356 1.281712,-0.007 3.593687,1.07534 4.349372,2.03604 0.508341,0.64625 0.604144,0.66527 2.448362,0.48594 1.055626,-0.10265 4.836352,-0.59168 8.401612,-1.08674 5.037621,-0.69951 6.541258,-0.99639 6.746875,-1.3321 0.145521,-0.23759 0.60521,-0.95761 1.02153,-1.60004 0.866496,-1.33711 0.885925,-1.23666 -0.965376,-4.9912 -1.909663,-3.87291 -4.829362,-7.24104 -8.341016,-9.6221 -2.133042,-1.4463 -3.765256,-2.22439 -6.796388,-3.23989 -2.596085,-0.86975 -2.732894,-0.88651 -7.276042,-0.89138 -5.0291293,-0.005 -6.2029333,0.21995 -10.3895472,1.99455 -10.1558668,4.30482 -16.5233998,15.9894 -14.7070538,26.98779 0.29713,1.79919 0.323104,1.84257 1.256771,2.09895 0.524354,0.14399 1.310558,0.50028 1.747121,0.79176 1.0317093,0.68883 1.1569565,0.67877 3.3952354,-0.27278 z" />
  </g>
</svg>
